HIERARCHY
ROOT Hips
{
	OFFSET 0.000000 0.000000 0.000000
	CHANNELS 6 Xposition Yposition Zposition Zrotation Yrotation Xrotation 
	JOINT LHipJoint
	{
		OFFSET 0.000000 0.000000 0.000000
		CHANNELS 3 Zrotation Yrotation Xrotation
		JOINT LeftUpLeg
		{
			OFFSET 1.363060 -1.794630 0.839290
			CHANNELS 3 Zrotation Yrotation Xrotation
			JOINT LeftLeg
			{
				OFFSET 2.448110 -6.726130 0.000000
				CHANNELS 3 Zrotation Yrotation Xrotation
				JOINT LeftFoot
				{
					OFFSET 2.562200 -7.039590 0.000000
					CHANNELS 3 Zrotation Yrotation Xrotation
					JOINT LeftToeBase
					{
						OFFSET 0.157640 -0.433110 2.322550
						CHANNELS 3 Zrotation Yrotation Xrotation
						End Site
						{
							OFFSET 0.000000 0.000000 0.000000
						}
					}
				}
			}
		}
	}
	JOINT RHipJoint
	{
		OFFSET 0.000000 0.000000 0.000000
		CHANNELS 3 Zrotation Yrotation Xrotation
		JOINT RightUpLeg
		{
			OFFSET -1.305520 -1.794630 0.839290
			CHANNELS 3 Zrotation Yrotation Xrotation
			JOINT RightLeg
			{
				OFFSET -2.542530 -6.985550 0.000000
				CHANNELS 3 Zrotation Yrotation Xrotation
				JOINT RightFoot
				{
					OFFSET -2.568260 -7.056230 0.000000
					CHANNELS 3 Zrotation Yrotation Xrotation
					JOINT RightToeBase
					{
						OFFSET -0.164730 -0.452590 2.363150
						CHANNELS 3 Zrotation Yrotation Xrotation
						End Site
						{
							OFFSET 0.000000 0.000000 0.000000
						}
					}
				}
			}
		}
	}
}
MOTION
Frames: 19
Frame Time: 0.008333
2.860613 17.143115 -1.235333 125.142611 -77.858368 -125.196203 -5.655039 -4.883220 2.209036 -8.590988 -4.807515 -87.457497 -3.687802 -0.718287 3.428507 0.877648 8.485464 17.745995 4.733100 0.000000 -49.522400 10.847805 1.638362 -4.981060 2.951951 -0.549673 -3.604335 1.388568 -1.665348 19.623079 -0.745113 -1.491819 -9.090022 -0.003400 0.000000 -50.815900
2.861582 17.130190 -1.237744 124.183412 -78.153356 -124.495051 -5.780669 -4.906483 2.114493 -7.363000 -5.203637 -86.608142 -3.233360 -0.332686 6.390945 1.119786 9.757496 19.023310 5.437300 -0.000000 -48.221300 10.809467 1.611508 -5.059856 3.112246 -0.780331 -3.351676 1.407079 -1.690053 19.800235 -0.770023 -1.602936 -9.273597 0.007100 0.000001 -50.733100
2.862844 17.119631 -1.242480 122.667640 -78.489807 -123.281672 -5.878003 -4.948612 1.985998 -6.263249 -5.735714 -85.437378 -2.826589 -0.010517 8.945052 1.236582 10.317476 20.631221 5.849700 -0.000001 -47.060000 10.795893 1.582570 -5.155836 3.211148 -1.146194 -3.007200 1.421855 -1.710230 19.852661 -0.789689 -1.696064 -9.397213 0.014699 0.000000 -50.691700
2.864037 17.112022 -1.249174 120.675347 -78.864040 -121.597377 -5.955921 -4.991444 1.844959 -5.360502 -6.388167 -84.055380 -2.490626 0.251774 11.102283 1.240872 10.165305 22.321309 5.900400 0.000000 -46.217700 10.805126 1.548619 -5.254676 3.272079 -1.607180 -2.621577 1.433414 -1.723142 19.785173 -0.806083 -1.784176 -9.456670 0.018800 0.000000 -50.686700
2.864784 17.107652 -1.257317 118.328543 -79.259421 -119.532963 -6.020683 -5.019714 1.707577 -4.692704 -7.120931 -82.569052 -2.230244 0.466207 12.934399 1.162717 9.409047 23.890128 5.588800 0.000001 -45.833700 10.835383 1.508680 -5.342193 3.312898 -2.118812 -2.242052 1.441715 -1.726934 19.615123 -0.820158 -1.872756 -9.453525 0.019000 -0.000000 -50.716600
2.864711 17.106585 -1.266280 115.805025 -79.648811 -117.247012 -6.076864 -5.022442 1.580521 -4.290560 -7.869668 -81.069888 -2.039224 0.648300 14.554485 1.035026 8.214378 25.194723 4.976300 0.000000 -45.947800 10.883298 1.463087 -5.404697 3.344869 -2.633965 -1.906465 1.446412 -1.720774 19.369961 -0.832050 -1.960844 -9.396154 0.015700 0.000000 -50.769200
2.863755 17.108552 -1.275522 113.293899 -80.003460 -114.923380 -6.127254 -4.996087 1.463610 -4.148482 -8.573981 -79.598125 -1.901119 0.807797 16.050983 0.892445 6.815908 26.183993 4.195600 -0.000001 -46.591100 10.945041 1.414295 -5.435085 3.368989 -3.114542 -1.632458 1.446873 -1.705322 19.074995 -0.841103 -2.042769 -9.292150 0.009300 0.000000 -50.847900
2.861582 17.113158 -1.284443 111.036500 -80.297499 -112.803272 -6.177513 -4.940491 1.350409 -4.269326 -9.164805 -78.182549 -1.799521 0.954452 17.518916 0.760633 5.424990 26.852747 3.382200 -0.000000 -47.699600 11.013263 1.363017 -5.426340 3.385914 -3.522826 -1.429668 1.443412 -1.682166 18.759595 -0.846556 -2.110536 -9.155629 0.000600 -0.000000 -50.945000
2.858135 17.119771 -1.292482 109.247814 -80.515714 -111.110127 -6.234000 -4.861143 1.233433 -4.623348 -9.592429 -76.818810 -1.715946 1.092186 19.010076 0.661668 4.251281 27.246019 2.674600 -0.000000 -49.177100 11.079622 1.309719 -5.377042 3.395455 -3.831505 -1.294778 1.437044 -1.653919 18.446865 -0.847869 -2.157434 -9.000049 -0.009600 0.000000 -51.053300
2.853294 17.127709 -1.299131 108.099744 -80.653600 -110.025380 -6.303192 -4.765459 1.106573 -5.165913 -9.824481 -75.491752 -1.634894 1.222018 20.547374 0.610860 3.460020 27.423409 2.180099 0.000000 -50.856700 11.135603 1.253479 -5.288228 3.400636 -4.022102 -1.218761 1.429483 -1.623263 18.153475 -0.844958 -2.179513 -8.838167 -0.020200 -0.000001 -51.161900
2.846852 17.136381 -1.304032 107.679265 -80.715115 -109.640910 -6.388561 -4.660693 0.969842 -5.827299 -9.857511 -74.179742 -1.544967 1.340898 22.112816 0.618258 3.172307 27.445769 1.973100 0.000001 -52.505799 11.175154 1.193448 -5.163187 3.406158 -4.087014 -1.194619 1.422586 -1.592351 17.890718 -0.838038 -2.174977 -8.681711 -0.030300 0.000000 -51.256900
2.838897 17.144997 -1.306934 107.987562 -80.711854 -109.972808 -6.493106 -4.554423 0.819066 -6.553018 -9.692703 -72.858976 -1.441210 1.447232 23.696021 0.684510 3.412681 27.339103 2.065400 0.000000 -53.872100 11.191917 1.128260 -5.010186 3.423419 -4.032303 -1.194763 1.418492 -1.562277 17.652735 -0.827750 -2.146445 -8.535048 -0.039600 0.000000 -51.352700
2.828964 17.153345 -1.307810 108.934502 -80.655827 -110.921140 -6.612940 -4.448836 0.668432 -7.254166 -9.380385 -71.516327 -1.323431 1.534847 25.234221 0.807393 4.177599 27.125000 2.451400 0.000000 -54.666600 11.186164 1.058466 -4.833483 3.457741 -3.872163 -1.227949 1.418408 -1.532904 17.444471 -0.814557 -2.094762 -8.407943 -0.047300 0.000000 -51.412500
2.817030 17.161104 -1.306854 110.372975 -80.561778 -112.341087 -6.744555 -4.345883 0.525484 -7.876578 -8.967256 -70.140815 -1.196461 1.602238 26.695981 0.975871 5.368663 26.789711 3.067900 -0.000000 -54.710600 11.158645 0.984771 -4.641040 3.516384 -3.632031 -1.283878 1.423259 -1.503252 17.255446 -0.798921 -2.023019 -8.301187 -0.053200 0.000000 -51.435700
2.802873 17.168207 -1.304313 112.127801 -80.446679 -114.053166 -6.883705 -4.245184 0.400564 -8.378726 -8.511501 -68.730610 -1.066866 1.650063 28.057643 1.174617 6.844523 26.312416 3.826000 -0.000000 -53.969000 11.112296 0.908097 -4.439730 3.604138 -3.342397 -1.359422 1.433530 -1.471746 17.073818 -0.781331 -1.934936 -8.213779 -0.057600 0.000000 -51.422200
2.786343 17.174689 -1.300497 114.028772 -80.329567 -115.883606 -7.027505 -4.145514 0.302582 -8.738175 -8.069250 -67.290208 -0.940428 1.681679 29.314879 1.386205 8.443473 25.676527 4.623100 0.000000 -52.578600 11.050383 0.828812 -4.234952 3.725934 -3.031662 -1.450415 1.449342 -1.436654 16.883598 -0.762698 -1.837566 -8.140415 -0.060799 0.000000 -51.374501
2.767443 17.180735 -1.296113 115.896794 -80.223057 -117.653048 -7.170537 -4.042834 0.237507 -8.961943 -7.694297 -65.821686 -0.822346 1.701401 30.471365 1.594219 10.022627 24.883141 5.369700 0.000001 -50.821600 10.983547 0.748850 -4.032549 3.866131 -2.741696 -1.559613 1.469783 -1.397560 16.679988 -0.741406 -1.722269 -8.079290 -0.062700 0.000001 -51.303500
2.746025 17.186484 -1.290653 117.694811 -80.153446 -119.322992 -7.319564 -3.939203 0.205287 -9.053553 -7.400961 -64.354219 -0.712367 1.717474 31.583031 1.783138 11.434735 23.922056 5.973000 0.000000 -48.907900 10.902034 0.664361 -3.832818 4.055930 -2.465031 -1.668411 1.495942 -1.352081 16.432931 -0.722536 -1.622416 -8.015488 -0.065200 -0.000000 -51.202800
2.722337 17.192174 -1.285206 119.280783 -80.119934 -120.757373 -7.466548 -3.828839 0.206336 -9.048799 -7.226251 -62.877936 -0.612485 1.731966 32.651500 1.945714 12.631797 22.837111 6.409100 -0.000001 -47.187399 10.823067 0.578850 -3.640272 4.257396 -2.242343 -1.782379 1.525229 -1.301869 16.150572 -0.702479 -1.516967 -7.948843 -0.067600 0.000000 -51.098000
